<svg id="visual" viewBox="0 0 480 782" width="480" height="782" xmlns="http://www.w3.org/2000/svg" xmlns:xlink="http://www.w3.org/1999/xlink" version="1.1"><path d="M0 56L11.5 56C23 56 46 56 68.8 54.7C91.7 53.3 114.3 50.7 137.2 52C160 53.3 183 58.7 205.8 60C228.7 61.3 251.3 58.7 274.2 54.7C297 50.7 320 45.3 342.8 46.7C365.7 48 388.3 56 411.2 56C434 56 457 48 468.5 44L480 40L480 0L468.5 0C457 0 434 0 411.2 0C388.3 0 365.7 0 342.8 0C320 0 297 0 274.2 0C251.3 0 228.7 0 205.8 0C183 0 160 0 137.2 0C114.3 0 91.7 0 68.8 0C46 0 23 0 11.5 0L0 0Z" fill="#14145d"></path><path d="M0 126L11.5 122.2C23 118.3 46 110.7 68.8 109.3C91.7 108 114.3 113 137.2 115.5C160 118 183 118 205.8 119.3C228.7 120.7 251.3 123.3 274.2 120.8C297 118.3 320 110.7 342.8 109.3C365.7 108 388.3 113 411.2 114.2C434 115.3 457 112.7 468.5 111.3L480 110L480 38L468.5 42C457 46 434 54 411.2 54C388.3 54 365.7 46 342.8 44.7C320 43.3 297 48.7 274.2 52.7C251.3 56.7 228.7 59.3 205.8 58C183 56.7 160 51.3 137.2 50C114.3 48.7 91.7 51.3 68.8 52.7C46 54 23 54 11.5 54L0 54Z" fill="#131963"></path><path d="M0 259L11.5 256.3C23 253.7 46 248.3 68.8 261.3C91.7 274.3 114.3 305.7 137.2 307C160 308.3 183 279.7 205.8 271.8C228.7 264 251.3 277 274.2 283.5C297 290 320 290 342.8 286.2C365.7 282.3 388.3 274.7 411.2 264.3C434 254 457 241 468.5 234.5L480 228L480 108L468.5 109.3C457 110.7 434 113.3 411.2 112.2C388.3 111 365.7 106 342.8 107.3C320 108.7 297 116.3 274.2 118.8C251.3 121.3 228.7 118.7 205.8 117.3C183 116 160 116 137.2 113.5C114.3 111 91.7 106 68.8 107.3C46 108.7 23 116.3 11.5 120.2L0 124Z" fill="#121e69"></path><path d="M0 384L11.5 382.7C23 381.3 46 378.7 68.8 383.8C91.7 389 114.3 402 137.2 393C160 384 183 353 205.8 347.8C228.7 342.7 251.3 363.3 274.2 378.8C297 394.3 320 404.7 342.8 406C365.7 407.3 388.3 399.7 411.2 389.3C434 379 457 366 468.5 359.5L480 353L480 226L468.5 232.5C457 239 434 252 411.2 262.3C388.3 272.7 365.7 280.3 342.8 284.2C320 288 297 288 274.2 281.5C251.3 275 228.7 262 205.8 269.8C183 277.7 160 306.3 137.2 305C114.3 303.7 91.7 272.3 68.8 259.3C46 246.3 23 251.7 11.5 254.3L0 257Z" fill="#11236f"></path><path d="M0 447L11.5 448.3C23 449.7 46 452.3 68.8 457.5C91.7 462.7 114.3 470.3 137.2 459.8C160 449.3 183 420.7 205.8 414.2C228.7 407.7 251.3 423.3 274.2 436.3C297 449.3 320 459.7 342.8 459.7C365.7 459.7 388.3 449.3 411.2 441.5C434 433.7 457 428.3 468.5 425.7L480 423L480 351L468.5 357.5C457 364 434 377 411.2 387.3C388.3 397.7 365.7 405.3 342.8 404C320 402.7 297 392.3 274.2 376.8C251.3 361.3 228.7 340.7 205.8 345.8C183 351 160 382 137.2 391C114.3 400 91.7 387 68.8 381.8C46 376.7 23 379.3 11.5 380.7L0 382Z" fill="#0f2875"></path><path d="M0 486L11.5 488.5C23 491 46 496 68.8 505.2C91.7 514.3 114.3 527.7 137.2 517.3C160 507 183 473 205.8 463.8C228.7 454.7 251.3 470.3 274.2 482C297 493.7 320 501.3 342.8 503.8C365.7 506.3 388.3 503.7 411.2 495.8C434 488 457 475 468.5 468.5L480 462L480 421L468.5 423.7C457 426.3 434 431.7 411.2 439.5C388.3 447.3 365.7 457.7 342.8 457.7C320 457.7 297 447.3 274.2 434.3C251.3 421.3 228.7 405.7 205.8 412.2C183 418.7 160 447.3 137.2 457.8C114.3 468.3 91.7 460.7 68.8 455.5C46 450.3 23 447.7 11.5 446.3L0 445Z" fill="#0b2d7b"></path><path d="M0 674L11.5 679.2C23 684.3 46 694.7 68.8 695.8C91.7 697 114.3 689 137.2 685C160 681 183 681 205.8 687.5C228.7 694 251.3 707 274.2 712.3C297 717.7 320 715.3 342.8 715.3C365.7 715.3 388.3 717.7 411.2 713.7C434 709.7 457 699.3 468.5 694.2L480 689L480 460L468.5 466.5C457 473 434 486 411.2 493.8C388.3 501.7 365.7 504.3 342.8 501.8C320 499.3 297 491.7 274.2 480C251.3 468.3 228.7 452.7 205.8 461.8C183 471 160 505 137.2 515.3C114.3 525.7 91.7 512.3 68.8 503.2C46 494 23 489 11.5 486.5L0 484Z" fill="#073281"></path><path d="M0 783L11.5 783C23 783 46 783 68.8 783C91.7 783 114.3 783 137.2 783C160 783 183 783 205.8 783C228.7 783 251.3 783 274.2 783C297 783 320 783 342.8 783C365.7 783 388.3 783 411.2 783C434 783 457 783 468.5 783L480 783L480 687L468.5 692.2C457 697.3 434 707.7 411.2 711.7C388.3 715.7 365.7 713.3 342.8 713.3C320 713.3 297 715.7 274.2 710.3C251.3 705 228.7 692 205.8 685.5C183 679 160 679 137.2 683C114.3 687 91.7 695 68.8 693.8C46 692.7 23 682.3 11.5 677.2L0 672Z" fill="#013787"></path></svg>